<?xml version="1.0" standalone="no"?>
<!DOCTYPE svg PUBLIC "-//W3C//DTD SVG 1.1//EN" "http://www.w3.org/Graphics/SVG/1.1/DTD/svg11.dtd" >
<svg xmlns="http://www.w3.org/2000/svg">
<metadata></metadata>
<defs>
<font id="futurafuturiscbold" horiz-adv-x="1220" >
<font-face units-per-em="2048" ascent="1511" descent="-537" />
<missing-glyph horiz-adv-x="477" />
<glyph horiz-adv-x="2048" />
<glyph horiz-adv-x="2048" />
<glyph unicode="&#xd;" horiz-adv-x="2048" />
<glyph unicode=" "  horiz-adv-x="477" />
<glyph unicode="&#x09;" horiz-adv-x="477" />
<glyph unicode="&#xa0;" horiz-adv-x="477" />
<glyph unicode="!" horiz-adv-x="675" d="M129 172q0 86 61.5 147.5t147.5 61.5t147.5 -61.5t61.5 -147.5t-61.5 -147.5t-147.5 -61.5t-147.5 61.5t-61.5 147.5zM145 473v961h385v-961h-385z" />
<glyph unicode="&#x22;" horiz-adv-x="835" d="M102 1434h258l-41 -574h-176zM475 1434h258l-41 -574h-176z" />
<glyph unicode="#" horiz-adv-x="1392" d="M61 406l33 204h232l36 242h-231l33 205h231l62 377h245l-61 -377h229l60 377h250l-60 -377h232l-33 -205h-232l-36 -242h231l-33 -204h-231l-66 -406h-250l66 406h-229l-64 -406h-246l64 406h-232zM571 610h230l37 242h-230z" />
<glyph unicode="$" horiz-adv-x="1142" d="M14 188l189 306q197 -205 358 -205q41 0 71 14t44 36.5t20 43t6 41.5q0 27 -6.5 49.5t-23.5 40t-32 29.5t-45 25.5t-49 20.5t-59 20t-59 20q-55 19 -96.5 39t-90 55.5t-80 79t-52.5 110t-21 148.5q0 72 17.5 132t44 100t65 71.5t72.5 49t74.5 30t63.5 16.5t46 6v226h186 v-226q216 -18 367 -133l-143 -301q-134 127 -260 127q-64 0 -107 -29t-43 -94q0 -53 36.5 -78t131.5 -55q81 -25 133 -47q49 -20 86 -39.5t82.5 -57t75 -82t49.5 -114t20 -153.5q0 -93 -29 -168.5t-73.5 -123t-103.5 -82t-113 -50t-109 -21.5v-203h-186v203 q-111 14 -217.5 64.5t-239.5 158.5z" />
<glyph unicode="%" horiz-adv-x="1806" d="M43 1081q0 161 116 277.5t277 116.5t277 -116.5t116 -277.5t-116 -277t-277 -116t-277 116t-116 277zM276 1081q0 -67 46 -113t114 -46t114 46t46 113t-46 113.5t-114 46.5t-114 -46.5t-46 -113.5zM344 -41l932 1516h186l-932 -1516h-186zM977 352q0 161 116 277t277 116 t277 -116t116 -277t-116 -277t-277 -116t-277 116t-116 277zM1210 352q0 -67 46 -113t114 -46t114 46t46 113q0 68 -46 114t-114 46t-114 -46t-46 -114z" />
<glyph unicode="&#x26;" horiz-adv-x="1519" d="M72 365q0 278 338 409q-69 78 -98 137.5t-29 145.5q0 80 27 153t76.5 131.5t129 93.5t176.5 35q190 0 300 -110t110 -287q0 -121 -61 -201t-195 -161l168 -185l203 203l202 -213l-200 -188l301 -328h-416l-129 137q-99 -93 -195.5 -133.5t-228.5 -40.5 q-120 0 -213.5 32.5t-150.5 89t-86 127.5t-29 153zM430 381q0 -20 5.5 -40.5t20 -46.5t48 -42t82.5 -16q53 0 100 22.5t102 77.5l-217 244q-68 -38 -104.5 -85t-36.5 -114zM584 1067q0 -48 29.5 -99.5t74.5 -93.5q137 101 137 207q0 63 -35.5 97t-84.5 34q-45 0 -83 -34.5 t-38 -110.5z" />
<glyph unicode="'" horiz-adv-x="462" d="M102 1434h258l-41 -574h-176z" />
<glyph unicode="(" horiz-adv-x="737" d="M139 545q0 112 12 217.5t42.5 233t91 268t149.5 284.5l201 -121q-244 -435 -244 -882q0 -448 244 -883l-201 -121q-89 144 -149.5 285t-91 268t-42.5 233t-12 218z" />
<glyph unicode=")" horiz-adv-x="737" d="M102 -338q244 436 244 883q0 446 -244 882l201 121q89 -144 149.5 -284.5t91 -268t42.5 -233t12 -217.5t-12 -218t-42.5 -233t-91 -268t-149.5 -285z" />
<glyph unicode="*" horiz-adv-x="983" d="M57 926l234 135l-234 135l101 174l233 -135v270h201v-270l233 135l101 -174l-234 -135l234 -135l-101 -174l-233 135v-271h-201v271l-233 -135z" />
<glyph unicode="+" horiz-adv-x="1310" d="M102 614v205h451v451h205v-451h450v-205h-450v-450h-205v450h-451z" />
<glyph unicode="," horiz-adv-x="659" d="M29 -287l215 631h358l-301 -631h-272z" />
<glyph unicode="-" horiz-adv-x="860" d="M82 401v316h696v-316h-696z" />
<glyph unicode="." horiz-adv-x="675" d="M129 172q0 86 61.5 147.5t147.5 61.5t147.5 -61.5t61.5 -147.5t-61.5 -147.5t-147.5 -61.5t-147.5 61.5t-61.5 147.5z" />
<glyph unicode="/" horiz-adv-x="1048" d="M43 -430l748 1935h215l-748 -1935h-215z" />
<glyph unicode="0" d="M66 717q0 117 14.5 216.5t37.5 171.5t58 130.5t70 96t79 65.5t80.5 42.5t79 23t69 10.5t56.5 2q40 0 75.5 -3.5t93.5 -20.5t105.5 -46t100 -86t88 -134.5t59 -198t23.5 -269.5t-23.5 -269.5t-59 -198t-88 -134.5t-100 -86t-105.5 -46t-93.5 -20.5t-75.5 -3.5 q-30 0 -56.5 2t-69 10.5t-79 23t-80.5 42.5t-79 65.5t-70 96t-58 130.5t-37.5 171.5t-14.5 216.5zM430 717q0 -51 0.5 -84.5t4.5 -86.5t10.5 -88t20 -76t32 -65t47 -40.5t65.5 -16.5t65.5 16.5t47.5 41t32 65t20 76t11 87.5t4.5 86t0.5 85t-0.5 85t-4.5 86t-11 87.5t-20 76 t-32 65t-47.5 41t-65.5 16.5t-65.5 -16.5t-47 -40.5t-32 -65t-20 -76t-10.5 -88t-4.5 -86.5t-0.5 -84.5z" />
<glyph unicode="1" d="M287 1104v330h590v-1434h-371v1104h-219z" />
<glyph unicode="2" d="M14 0l594 692q99 116 133.5 175t34.5 120q0 76 -47 131.5t-127 55.5q-47 0 -82 -20.5t-52.5 -48.5t-28 -65.5t-13 -61.5t-2.5 -48h-358q2 69 16.5 137t53 144t97 132.5t156.5 94t223 37.5q129 0 231.5 -40.5t165 -108.5t94.5 -152t32 -177q0 -64 -16 -122.5t-44 -112.5 t-86 -126.5t-121.5 -141t-171.5 -179.5h422v-315h-1104z" />
<glyph unicode="3" d="M57 461h359q-1 -31 6 -61.5t24.5 -64t56 -54.5t93.5 -21q47 0 81.5 14.5t53 35.5t29.5 50t13.5 51.5t2.5 47.5q0 44 -14.5 75.5t-34 46.5t-51 23.5t-51.5 10t-50 1.5h-45v246h45q15 0 30.5 2t41 11t44.5 24.5t33.5 47.5t14.5 75q0 45 -14 77t-37 47t-45 21.5t-45 6.5 q-65 0 -111 -44t-43 -108h-358q12 90 41 162.5t65.5 118.5t85 80t90.5 51t92 27t79.5 12t62.5 2q74 0 143 -13.5t132.5 -44.5t110 -75.5t74.5 -111t28 -147.5q0 -111 -56 -189t-155 -103v-7q48 -13 90.5 -39.5t81.5 -69.5t61.5 -109.5t22.5 -149.5q0 -206 -148.5 -331.5 t-398.5 -125.5q-98 0 -178.5 22.5t-133.5 57t-94 83t-63 93.5t-36.5 97.5t-19 84.5t-6.5 64z" />
<glyph unicode="4" d="M29 344v295l516 795h473v-789h160v-301h-160v-344h-344v344h-645zM356 645h318v502z" />
<glyph unicode="5" d="M72 86l30 344h43q93 -100 173.5 -135t175.5 -35q130 0 206 65t76 189q0 50 -19 89.5t-49.5 63.5t-72.5 40t-85 22t-91 6q-115 0 -246 -61h-68l158 760h774v-316h-530l-33 -186q78 16 164 16q212 0 334.5 -123t122.5 -319q0 -128 -50 -232.5t-135.5 -172.5t-197 -105 t-236.5 -37q-241 0 -444 127z" />
<glyph unicode="6" d="M57 479q0 133 37.5 245t120.5 232l328 478h424l-351 -502q59 18 119 18q191 0 309.5 -132t118.5 -339q0 -105 -36 -198t-103.5 -165.5t-175.5 -114.5t-242 -42q-248 0 -398.5 142t-150.5 378zM401 475q0 -93 54 -154t147 -61q91 0 147 61.5t56 153.5q0 89 -54.5 151 t-148.5 62q-92 0 -146.5 -61t-54.5 -152z" />
<glyph unicode="7" d="M86 1104v330h1135l-660 -1434h-430l541 1104h-586z" />
<glyph unicode="8" d="M57 393q0 72 20 132t48.5 98t68 67.5t71.5 43.5t65 24v4q-91 34 -149 114t-58 203q0 81 30.5 152t89 126t153 86.5t214.5 31.5t215 -31.5t153.5 -86.5t89 -126t30.5 -152q0 -123 -58 -203t-149 -114v-4q33 -10 65 -24t71 -43.5t67.5 -67.5t48.5 -98t20 -132 q0 -34 -4.5 -67.5t-19.5 -78t-38.5 -83t-66.5 -77.5t-99 -66.5t-139.5 -44.5t-185.5 -17t-185.5 17t-139.5 44.5t-99 66.5t-66.5 77.5t-38.5 83t-19.5 78t-4.5 67.5zM432 444q0 -75 48 -129.5t130 -54.5q85 0 133 54t48 130q0 40 -12.5 72t-32 52t-44.5 33t-48 18.5t-44 5.5 q-73 0 -125.5 -50t-52.5 -131zM463 1036q0 -78 45 -115.5t102 -37.5q61 0 105.5 38t44.5 115q0 45 -15.5 77.5t-40 48.5t-48 23t-46.5 7q-22 0 -45 -6.5t-47 -22.5t-39.5 -49t-15.5 -78z" />
<glyph unicode="9" d="M57 954q0 105 36 198t103.5 165.5t175.5 115t242 42.5q248 0 398.5 -142.5t150.5 -378.5q0 -134 -37 -245.5t-120 -231.5l-328 -477h-424l350 502q-63 -19 -119 -19q-191 0 -309.5 132t-118.5 339zM416 958q0 -89 54 -151t148 -62q92 0 146.5 61t54.5 152q0 94 -54 155 t-147 61q-91 0 -146.5 -61.5t-55.5 -154.5z" />
<glyph unicode=":" horiz-adv-x="675" d="M129 172q0 86 61.5 147.5t147.5 61.5t147.5 -61.5t61.5 -147.5t-61.5 -147.5t-147.5 -61.5t-147.5 61.5t-61.5 147.5zM129 817q0 86 61.5 147.5t147.5 61.5t147.5 -61.5t61.5 -147.5t-61.5 -147.5t-147.5 -61.5t-147.5 61.5t-61.5 147.5z" />
<glyph unicode=";" horiz-adv-x="659" d="M29 -287l215 631h358l-301 -631h-272zM184 817q0 86 61.5 147.5t147.5 61.5t147.5 -61.5t61.5 -147.5t-61.5 -147.5t-147.5 -61.5t-147.5 61.5t-61.5 147.5z" />
<glyph unicode="&#x3c;" horiz-adv-x="1310" d="M168 627v176l975 454v-225l-705 -317l705 -318v-225z" />
<glyph unicode="=" horiz-adv-x="1310" d="M102 430v205h1106v-205h-1106zM102 799v205h1106v-205h-1106z" />
<glyph unicode="&#x3e;" horiz-adv-x="1310" d="M168 172v225l704 318l-704 317v225l975 -454v-176z" />
<glyph unicode="?" horiz-adv-x="1075" d="M57 1016q-2 88 27 168.5t86.5 146.5t152.5 105t216 39q122 0 217 -37t150.5 -99t83.5 -136.5t28 -155.5q0 -165 -86.5 -277t-229.5 -115v-182h-344v371h99q60 0 103.5 16.5t64.5 37t33 50.5t14 46t2 34q0 70 -35 108t-100 38q-40 0 -69.5 -17t-43 -42t-19.5 -46t-6 -37 v-16h-344zM322 172q0 86 61 147.5t147 61.5t147.5 -61.5t61.5 -147.5t-61.5 -147.5t-147.5 -61.5t-147 61.5t-61 147.5z" />
<glyph unicode="@" horiz-adv-x="1798" d="M131 717q0 221 101.5 395t274 268.5t382.5 94.5q126 0 234.5 -26t186.5 -69.5t141 -103t102.5 -124.5t65.5 -136t37 -134.5t11 -123.5q0 -110 -39.5 -198t-104 -140.5t-140 -80.5t-154.5 -28q-130 0 -207 127q-52 -59 -116 -93t-126 -34q-57 0 -111 17t-102.5 52t-78 99 t-29.5 148q0 125 62 235t167 176t225 66q72 0 109 -28.5t61 -76.5l19 86h205l-115 -530q-24 -109 78 -109q36 0 71.5 8t73 30t65.5 56t46 90t18 128q0 142 -51.5 257.5t-141 190t-208 114.5t-254.5 40q-144 0 -265 -52t-200.5 -140t-123.5 -204.5t-44 -246.5 q0 -111 27 -207.5t74.5 -167.5t110.5 -126.5t136.5 -89.5t150 -51.5t154.5 -17.5q174 0 320 95l59 -91q-93 -56 -181 -79t-198 -23q-164 0 -305.5 50.5t-247 144.5t-165.5 239t-60 324zM715 651q0 -55 24 -97t84 -42q44 0 81.5 19.5t60.5 48.5t39.5 63.5t23 64.5t6.5 52 q0 16 -1.5 31t-9 38.5t-20 40t-37 29t-57.5 12.5q-49 0 -88 -25t-61 -64.5t-33.5 -83.5t-11.5 -87z" />
<glyph unicode="A" horiz-adv-x="1478" d="M-14 0l510 1434h487l510 -1434h-430l-80 248h-487l-80 -248h-430zM575 563h328l-164 529z" />
<glyph unicode="B" horiz-adv-x="1388" d="M129 0v1434h694q80 0 146 -14.5t109.5 -38t76 -56.5t50.5 -65.5t29 -70t14 -65t3 -55.5q0 -108 -64 -187t-159 -112v-4q34 -8 68 -21.5t78.5 -42.5t77.5 -67t56 -99.5t23 -136.5q0 -78 -27.5 -147.5t-82 -127t-147 -91t-212.5 -33.5h-733zM530 287h185q22 0 37.5 1 t44.5 4.5t49 13.5t41 26t32 43t11 63q0 34 -10.5 60t-31 41t-40.5 24.5t-49 13t-44.5 4.5t-39.5 1h-185v-295zM530 868h168q56 0 95 13t57.5 35.5t25.5 43.5t7 44q0 63 -44.5 103t-140.5 40h-168v-279z" />
<glyph unicode="C" horiz-adv-x="1257" d="M66 717q0 175 59 320t159 239.5t231 146.5t278 52q223 0 393 -115v-416q-148 172 -340 172q-164 0 -265.5 -116t-101.5 -295q0 -167 99.5 -277.5t267.5 -110.5q188 0 340 156v-407q-157 -107 -387 -107q-158 0 -294 54.5t-232.5 152t-151.5 240t-55 311.5z" />
<glyph unicode="D" horiz-adv-x="1456" d="M129 0v1434h524q123 0 226.5 -23t178 -62.5t133.5 -95.5t96 -118.5t61 -135t33.5 -141t9.5 -141.5q0 -118 -27 -222.5t-85.5 -196t-143.5 -157.5t-208.5 -103.5t-273.5 -37.5h-524zM530 344h45q82 0 147.5 17.5t106.5 43t71 63.5t44 70.5t22.5 73t9.5 61t1 44.5 q0 26 -1 46.5t-9.5 61.5t-22.5 73t-44 70t-71.5 63t-106.5 42t-147 17h-45v-746z" />
<glyph unicode="E" horiz-adv-x="1075" d="M129 0v1434h860v-344h-459v-201h416v-316h-416v-229h459v-344h-860z" />
<glyph unicode="F" horiz-adv-x="1046" d="M129 0v1434h860v-344h-459v-216h416v-329h-416v-545h-401z" />
<glyph unicode="G" horiz-adv-x="1636" d="M66 707q0 351 207 559.5t552 208.5q127 0 236.5 -28.5t177.5 -66.5t125 -91.5t81.5 -89t45.5 -73.5l-354 -165q-40 79 -119.5 124t-181.5 45q-72 0 -137 -25.5t-117.5 -75t-83.5 -131t-31 -183.5q0 -105 31 -189.5t84 -139t121.5 -83.5t146.5 -29q121 0 207.5 66 t111.5 176h-372v315h770q5 -38 5 -78v-29q-3 -55 -6.5 -113.5t-18 -117t-33 -115.5t-51 -110t-71.5 -99.5t-94 -85t-119.5 -66t-147 -43t-177.5 -15.5q-165 0 -307.5 49.5t-250 142.5t-169 236t-61.5 320z" />
<glyph unicode="H" horiz-adv-x="1548" d="M129 0v1434h401v-516h488v516h401v-1434h-401v573h-488v-573h-401z" />
<glyph unicode="I" horiz-adv-x="659" d="M129 0v1434h401v-1434h-401z" />
<glyph unicode="J" horiz-adv-x="1003" d="M0 209l258 207q13 -45 45 -79t86 -34q57 0 77.5 37.5t20.5 114.5v979h402v-938q0 -39 -1.5 -72.5t-11 -91.5t-26.5 -104t-50.5 -98.5t-79 -88t-117.5 -59t-161 -23.5q-137 0 -254.5 67.5t-187.5 182.5z" />
<glyph unicode="K" horiz-adv-x="1433" d="M129 0v1434h401v-603l433 603h471l-545 -695l559 -739h-502l-416 616v-616h-401z" />
<glyph unicode="L" horiz-adv-x="989" d="M129 0v1434h401v-1090h431v-344h-832z" />
<glyph unicode="M" horiz-adv-x="1781" d="M29 0l209 1434h401l252 -875l252 875h401l209 -1434h-385l-106 831l-242 -831h-258l-242 831l-106 -831h-385z" />
<glyph unicode="N" horiz-adv-x="1591" d="M129 0v1434h422l524 -846v846h387v-1434h-415l-531 860v-860h-387z" />
<glyph unicode="O" horiz-adv-x="1671" d="M66 717q0 117 29 226t91.5 206t151.5 169.5t217 114.5t281 42t281 -42t217 -114.5t151.5 -169.5t91.5 -206t29 -226t-29 -226t-91.5 -206t-151.5 -169.5t-217 -114.5t-281 -42t-281 42t-217 114.5t-151.5 169.5t-91.5 206t-29 226zM479 717q0 -100 29.5 -180.5 t79.5 -130.5t113.5 -76.5t134.5 -26.5t134.5 26.5t113 76.5t79 130.5t29.5 180.5t-29.5 180.5t-79 130t-113 76t-134.5 26.5t-134.5 -26.5t-113.5 -76t-79.5 -130t-29.5 -180.5z" />
<glyph unicode="P" horiz-adv-x="1312" d="M129 0v1434h604q117 0 210.5 -31.5t150.5 -80.5t94.5 -114.5t52 -127.5t14.5 -126t-15 -127t-52.5 -128t-94.5 -114t-150 -80.5t-210 -31.5h-203v-473h-401zM530 788h115q197 0 197 166q0 164 -197 164h-115v-330z" />
<glyph unicode="Q" horiz-adv-x="1675" d="M66 717q0 232 100.5 405.5t274 263t395.5 89.5q153 0 281 -42t217 -114t151.5 -169t91.5 -206.5t29 -226.5q0 -37 -4 -79.5t-18.5 -118.5t-52 -155.5t-93.5 -142.5l194 -221l-258 -123l-143 176q-177 -94 -395 -94q-165 0 -306.5 52.5t-244.5 148.5t-161 239.5t-58 317.5 zM479 717q0 -101 29.5 -181.5t79.5 -130.5t113.5 -76t134.5 -26q66 0 122 23l-172 190l246 111l111 -133q49 85 49 223q0 93 -24 167t-61 119t-86 74.5t-94.5 41t-90.5 11.5q-44 0 -90 -11.5t-95 -41.5t-86.5 -75t-61.5 -119t-24 -166z" />
<glyph unicode="R" horiz-adv-x="1318" d="M129 0v1434h594q98 0 178 -21t130 -52.5t88 -75.5t56 -83.5t29 -84t13 -68t2 -45.5q0 -96 -27 -173.5t-74 -127t-95 -80t-105 -50.5l401 -573h-485l-304 473v-473h-401zM530 788h99q99 0 143.5 47t44.5 119q0 69 -44.5 116.5t-143.5 47.5h-99v-330z" />
<glyph unicode="S" horiz-adv-x="1146" d="M14 188l191 306q198 -191 356 -191q61 0 101 30t40 91q0 24 -6 44t-14.5 34.5t-26.5 28t-32 22t-42 18.5t-45.5 15t-52.5 15.5l-55 16.5q-32 10 -56 18.5t-61.5 27t-65.5 39t-60 54t-52 72.5t-33.5 94t-13.5 119q0 88 32 165.5t93 137.5t159 95t220 35q239 0 436 -142 l-143 -301q-142 127 -260 127q-81 0 -115.5 -37.5t-34.5 -85.5q0 -30 15 -53t44.5 -37.5t52.5 -21.5t58 -15q73 -17 128.5 -36t119 -56.5t104 -86t68 -125.5t27.5 -175q0 -215 -144.5 -343t-394.5 -128q-139 0 -260.5 52t-276.5 177z" />
<glyph unicode="T" horiz-adv-x="1060" d="M14 1090v344h1033v-344h-316v-1090h-401v1090h-316z" />
<glyph unicode="U" horiz-adv-x="1490" d="M115 580v854h401v-846q0 -34 3 -64t16.5 -73.5t36.5 -73.5t67.5 -52t105.5 -22t105.5 22t67.5 52.5t37 73t17 73t3 64.5v846h401v-854q0 -43 -3 -83.5t-17.5 -106t-39 -120.5t-72.5 -114.5t-112 -101t-164 -68.5t-223 -27q-97 0 -179 16.5t-141.5 43.5t-108 67t-80 81 t-55 91t-36 92t-20 89.5t-9 78t-1.5 62.5z" />
<glyph unicode="V" horiz-adv-x="1470" d="M-14 1434h473l297 -947l291 947h438l-545 -1434h-387z" />
<glyph unicode="W" horiz-adv-x="2236" d="M-14 1434h438l254 -875l225 875h430l226 -875l253 875h439l-504 -1434h-393l-236 918l-235 -918h-394z" />
<glyph unicode="X" horiz-adv-x="1460" d="M-14 0l524 754l-473 680h481l213 -387l213 387h455l-449 -660l525 -774h-474l-270 473l-287 -473h-458z" />
<glyph unicode="Y" horiz-adv-x="1363" d="M-14 1434h473l243 -504l238 504h438l-495 -877v-557h-402v557z" />
<glyph unicode="Z" horiz-adv-x="1247" d="M-14 0l659 1090h-545v344h1162l-646 -1090h588v-344h-1218z" />
<glyph unicode="[" horiz-adv-x="737" d="M160 -430v1935h504v-172h-218v-1591h218v-172h-504z" />
<glyph unicode="\" horiz-adv-x="1048" d="M43 1505h215l748 -1935h-215z" />
<glyph unicode="]" horiz-adv-x="737" d="M74 -258h217v1591h-217v172h504v-1935h-504v172z" />
<glyph unicode="^" horiz-adv-x="1187" d="M41 758l389 676h328l389 -676h-279l-274 516l-275 -516h-278z" />
<glyph unicode="_" horiz-adv-x="1024" d="M0 -225h1024v-205h-1024v205z" />
<glyph unicode="`" horiz-adv-x="1064" d="M106 1434h457l223 -330h-270z" />
<glyph unicode="a" horiz-adv-x="1304" d="M61 496q0 77 16 151t52 143.5t88.5 121t131 83t173.5 31.5q104 0 181.5 -37t142.5 -121v121h344v-989h-344v117q-120 -154 -324 -154q-95 0 -178.5 37t-146.5 104t-99.5 168.5t-36.5 223.5zM432 496q0 -98 55 -168t158 -70q96 0 155.5 65t59.5 173q0 107 -59.5 171 t-155.5 64q-105 0 -159 -69.5t-54 -165.5z" />
<glyph unicode="b" horiz-adv-x="1306" d="M115 0v1505h358v-618q71 75 141.5 107t169.5 32q95 0 173.5 -31t131 -83t88.5 -121t52 -143t16 -152q0 -146 -55 -266.5t-161 -193.5t-245 -73q-153 0 -266 94q-31 24 -59 60v-117h-344zM444 496q0 -63 21 -115t71.5 -87.5t122.5 -35.5q96 0 155.5 65t59.5 173 q0 107 -59.5 171t-155.5 64q-107 0 -161 -69t-54 -166z" />
<glyph unicode="c" horiz-adv-x="940" d="M61 496q0 84 20 161t61 144.5t100 117.5t142 78.5t181 28.5q148 0 314 -78v-311q-105 102 -236 102q-101 0 -156 -68.5t-55 -176.5q0 -107 60.5 -173.5t164.5 -66.5q112 0 222 98v-313q-152 -76 -314 -76q-221 0 -362.5 144.5t-141.5 388.5z" />
<glyph unicode="d" horiz-adv-x="1306" d="M61 496q0 78 16 152t52 143t89 121t131.5 83t174.5 31q100 0 171.5 -31.5t138.5 -107.5v618h358v-1505h-344v117q-120 -154 -324 -154q-96 0 -180.5 37t-147 104t-99 168.5t-36.5 223.5zM432 496q0 -63 21 -115t71.5 -87.5t122.5 -35.5q96 0 155.5 65t59.5 173 q0 107 -59.5 171t-155.5 64q-107 0 -161 -69t-54 -166z" />
<glyph unicode="e" horiz-adv-x="1212" d="M61 496q0 238 147 384t398 146q98 0 179 -22.5t137 -59.5t98.5 -88.5t67.5 -106t40.5 -116t19.5 -113.5q3 -36 4 -72q0 -16 -1 -32h-754v-10q-1 -92 53 -158q56 -70 160 -70q75 0 125.5 32t63.5 91h344q-24 -69 -62 -124.5t-78 -90.5t-92 -60t-90.5 -36.5t-88 -18 t-71 -7.5t-51.5 -1q-156 0 -278.5 60t-196.5 182.5t-74 290.5zM406 610h401q-5 83 -57.5 142t-143.5 59q-87 0 -141 -58.5t-59 -142.5z" />
<glyph unicode="f" horiz-adv-x="731" d="M14 731v258h129v195q0 24 1 43.5t9 57.5t21.5 67t42 64t67.5 58t101 38.5t139 15.5q80 0 193 -23v-262q-56 27 -101 27q-114 0 -114 -152v-129h215v-258h-215v-731h-359v731h-129z" />
<glyph unicode="g" horiz-adv-x="1320" d="M61 535q0 119 40 215t106 155t147.5 90t169.5 31q228 0 338 -137v100h344v-960q0 -101 -32.5 -187.5t-97 -154.5t-172 -107t-247.5 -39q-242 0 -378 104t-162 275h387q1 -56 46.5 -88.5t106.5 -32.5q33 0 57.5 3.5t54 17t48.5 37t32 67.5t13 105v77q-69 -62 -137 -84 t-147 -22q-229 0 -373 146t-144 389zM432 516q0 -112 66 -170.5t155 -58.5q91 0 157.5 58.5t66.5 170.5q0 52 -16 93t-40 64.5t-55.5 39t-59 21t-53.5 5.5t-52.5 -5.5t-57.5 -21t-55 -39t-40 -64.5t-16 -93z" />
<glyph unicode="h" horiz-adv-x="1247" d="M115 0v1505h358v-631q117 152 322 152q352 0 352 -448v-578h-359v545q0 25 -1 43t-8 47.5t-19.5 48t-37.5 33t-60 14.5q-77 0 -133 -62.5t-56 -181.5v-487h-358z" />
<glyph unicode="i" horiz-adv-x="593" d="M109 1276q0 78 55 133t133 55t133 -55t55 -133t-55 -133.5t-133 -55.5t-133 55.5t-55 133.5zM119 0v989h358v-989h-358z" />
<glyph unicode="j" horiz-adv-x="593" d="M109 1276q0 78 55 133t133 55t133 -55t55 -133t-55 -133.5t-133 -55.5t-133 55.5t-55 133.5zM119 -430v1419h358v-1419h-358z" />
<glyph unicode="k" horiz-adv-x="1282" d="M115 0v1505h358v-895l336 379h444l-450 -465l502 -524h-467l-365 410v-410h-358z" />
<glyph unicode="l" horiz-adv-x="587" d="M115 0v1505h358v-1505h-358z" />
<glyph unicode="m" horiz-adv-x="1835" d="M115 0v989h358v-104q129 141 311 141q103 0 179.5 -39t117.5 -113q63 79 136 115.5t178 36.5q95 0 164.5 -33t106 -87.5t53 -113t16.5 -122.5v-670h-359v578q0 153 -112 153q-65 0 -112.5 -51t-47.5 -150v-530h-359v578q0 153 -112 153q-65 0 -112.5 -51t-47.5 -150v-530 h-358z" />
<glyph unicode="n" horiz-adv-x="1247" d="M115 0v989h358v-115q117 152 322 152q352 0 352 -448v-578h-359v545q0 25 -1 43t-8 47.5t-19.5 48t-37.5 33t-60 14.5q-77 0 -133 -62.5t-56 -181.5v-487h-358z" />
<glyph unicode="o" horiz-adv-x="1306" d="M61 496q0 85 22 162t69 145t115 117t167 77.5t219 28.5t219 -28.5t167 -77.5t115 -117t69 -145t22 -162q0 -109 -35.5 -203t-106 -169t-186 -118t-264.5 -43t-264.5 43t-186 118t-106 169t-35.5 203zM432 496q0 -126 58 -200.5t163 -74.5t163 74.5t58 200.5 q0 124 -58 198t-163 74t-163 -74t-58 -198z" />
<glyph unicode="p" horiz-adv-x="1306" d="M115 -430v1419h344v-121q67 83 143 120.5t182 37.5q207 0 334 -146t127 -384q0 -146 -55 -266.5t-161 -193.5t-245 -73q-185 0 -311 137v-530h-358zM444 496q0 -63 21 -115t71.5 -87.5t122.5 -35.5q96 0 155.5 65t59.5 173q0 107 -59.5 171t-155.5 64q-107 0 -161 -69 t-54 -166z" />
<glyph unicode="q" horiz-adv-x="1306" d="M61 496q0 78 16 152t52 143t89 121t131.5 83t174.5 31q104 0 181.5 -37t142.5 -121v121h344v-1419h-358v530q-118 -137 -310 -137q-96 0 -180.5 37t-147 104t-99 168.5t-36.5 223.5zM432 496q0 -63 21 -115t71.5 -87.5t122.5 -35.5q96 0 155.5 65t59.5 173 q0 107 -59.5 171t-155.5 64q-107 0 -161 -69t-54 -166z" />
<glyph unicode="r" horiz-adv-x="845" d="M115 0v989h344v-129q15 21 30 39q56 62 124.5 87.5t125.5 25.5q44 0 92 -8v-316q-40 17 -92 17q-54 0 -97 -14.5t-70.5 -35.5t-47.5 -51.5t-29 -56t-14.5 -55.5t-6.5 -43.5t-1 -26.5v-422h-358z" />
<glyph unicode="s" horiz-adv-x="954" d="M43 66l100 247q143 -92 277 -92q57 0 80.5 21t23.5 49q0 23 -11 39t-33.5 25t-34.5 11.5t-35 6.5q-170 26 -252 95.5t-82 209.5q0 151 101 249.5t304 98.5q204 0 387 -86l-112 -229q-121 80 -228 80q-108 0 -108 -84q0 -43 33.5 -61.5t140.5 -31.5q26 -3 52 -8.5 t72.5 -25.5t79.5 -49.5t59 -86t26 -129.5q0 -56 -14 -105.5t-46.5 -95t-82 -79t-125.5 -53t-171 -19.5q-239 0 -401 103z" />
<glyph unicode="t" horiz-adv-x="716" d="M14 731v258h129v273h359v-273h200v-258h-200v-731h-359v731h-129z" />
<glyph unicode="u" horiz-adv-x="1232" d="M100 457v532h359v-540q0 -26 1.5 -44.5t10 -49t23.5 -49.5t46.5 -33.5t75.5 -14.5q37 0 65 9t44.5 27t27 35.5t15 42.5t5.5 40.5t1 36.5v540h359v-532q0 -35 -2 -64.5t-13 -83t-29.5 -96t-57.5 -91.5t-92 -82t-136 -55t-187 -22t-187 22t-136 55t-91.5 82t-57.5 91.5 t-29.5 96t-12.5 83t-2 64.5z" />
<glyph unicode="v" horiz-adv-x="1101" d="M-23 989h388l215 -530l180 530h364l-407 -989h-281z" />
<glyph unicode="w" horiz-adv-x="1605" d="M-23 989h353l186 -530l164 530h246l164 -530l186 530h352l-401 -989h-256l-168 516l-168 -516h-256z" />
<glyph unicode="x" horiz-adv-x="1232" d="M-14 0l434 528l-363 461h439l157 -264l162 264h418l-373 -465l387 -524h-416l-200 324l-211 -324h-434z" />
<glyph unicode="y" horiz-adv-x="1245" d="M-23 989h416l273 -530l231 530h371l-717 -1419h-387l301 573z" />
<glyph unicode="z" horiz-adv-x="1060" d="M0 0l502 731h-445v258h990l-508 -731h465v-258h-1004z" />
<glyph unicode="{" horiz-adv-x="1048" d="M233 401v205q51 3 89 26.5t57.5 53.5t31.5 71t14.5 69t2.5 57q0 39 -4 121q-4 78 -4 116q0 88 25.5 154t65 103t94 59t105 27.5t105.5 2.5v-163q-48 -8 -83 -27t-52.5 -40t-27.5 -48.5t-11.5 -43t-1.5 -32.5q0 -121 7 -196.5t7 -149.5q0 -43 -6 -71.5t-27 -63.5 t-69 -64.5t-125 -54.5v-16q77 -25 125 -54.5t69 -64.5t27 -63.5t6 -71.5q0 -74 -7 -149.5t-7 -196.5q0 -17 1.5 -32.5t11.5 -43t27.5 -48.5t52.5 -40t83 -27v-164q-55 -3 -105.5 2.5t-105 27.5t-94 59t-65 103t-25.5 154q0 39 4 117q4 82 4 121q0 29 -2.5 57t-14.5 68.5 t-31.5 71t-57.5 53.5t-89 26z" />
<glyph unicode="|" horiz-adv-x="1032" d="M414 -537v2149h204v-2149h-204z" />
<glyph unicode="}" horiz-adv-x="1048" d="M233 -295q48 8 83.5 27t52.5 40t27 48t12 43t2 33q0 121 -7.5 196.5t-7.5 149.5q0 43 6 71.5t27.5 63.5t69.5 64.5t125 54.5v16q-77 25 -125 54.5t-69.5 64.5t-27.5 63.5t-6 71.5q0 74 7.5 149.5t7.5 196.5q0 17 -2 33t-12 43t-27 48t-52.5 40t-83.5 27v163 q55 3 105.5 -2.5t105 -27.5t94.5 -59t65.5 -103t25.5 -154q0 -38 -4 -116q-4 -82 -4 -121q0 -29 2.5 -57t14 -69t31 -71t57.5 -53.5t89 -26.5v-205q-51 -3 -89 -26t-57.5 -53.5t-31 -71t-14 -68.5t-2.5 -57q0 -39 4 -121q4 -78 4 -117q0 -88 -25.5 -154t-65.5 -103 t-94.5 -59t-105 -27.5t-105.5 -2.5v164z" />
<glyph unicode="~" horiz-adv-x="1433" d="M164 643q49 97 125 170q93 90 213 90q85 0 233 -65q4 -2 21.5 -9.5t22.5 -10t21 -9t23 -8.5t21 -7t23.5 -7t22 -4.5t24.5 -3.5t24 -1q64 0 111 28t90 97l131 -90q-22 -49 -53.5 -93t-75 -82.5t-101 -61.5t-122.5 -23q-40 0 -87.5 12t-72 22t-82.5 34q-138 57 -187 57 q-72 0 -129 -47q-45 -37 -65 -78z" />
<glyph unicode="&#xa9;" horiz-adv-x="1720" d="M102 717q0 153 60.5 293.5t162 242t242 162t293.5 60.5t293.5 -60.5t242 -162t162 -242t60.5 -293.5t-60.5 -293.5t-162 -242t-242 -162t-293.5 -60.5t-293.5 60.5t-242 162t-162 242t-60.5 293.5zM229 717q0 -128 50 -245t134.5 -201.5t201.5 -134.5t245 -50t245 50 t201.5 134.5t134.5 201.5t50 245t-50 245t-134.5 201.5t-201.5 134.5t-245 50t-245 -50t-201.5 -134.5t-134.5 -201.5t-50 -245zM434 717q0 119 54 222.5t158.5 169t236.5 65.5q149 0 274 -76v-240q-106 80 -205 80q-43 0 -82.5 -12t-74.5 -37t-55.5 -69.5t-20.5 -102.5 q0 -107 62 -165t171 -58q105 0 205 73v-237q-75 -39 -134 -55.5t-140 -16.5q-195 0 -322 131.5t-127 327.5z" />
<glyph unicode="&#xab;" horiz-adv-x="1105" d="M57 516l349 473l196 -121l-258 -352l258 -352l-196 -121zM504 516l348 473l197 -121l-258 -352l258 -352l-197 -121z" />
<glyph unicode="&#xad;" horiz-adv-x="860" d="M82 401v316h696v-316h-696z" />
<glyph unicode="&#xae;" horiz-adv-x="1720" d="M102 717q0 153 60.5 293.5t162 242t242 162t293.5 60.5t293.5 -60.5t242 -162t162 -242t60.5 -293.5t-60.5 -293.5t-162 -242t-242 -162t-293.5 -60.5t-293.5 60.5t-242 162t-162 242t-60.5 293.5zM229 717q0 -128 50 -245t134.5 -201.5t201.5 -134.5t245 -50t245 50 t201.5 134.5t134.5 201.5t50 245t-50 245t-134.5 201.5t-201.5 134.5t-245 50t-245 -50t-201.5 -134.5t-134.5 -201.5t-50 -245zM512 293v846h397q141 0 218 -75.5t77 -191.5q0 -59 -17.5 -104t-47 -70t-56.5 -38t-57 -19l207 -348h-277l-176 334h-10v-334h-258zM770 795 h104q8 0 16 2t20 8t20 22.5t8 40.5q0 14 -2.5 24.5t-10 22t-25.5 17.5t-46 6h-84v-143z" />
<glyph unicode="&#xbb;" horiz-adv-x="1105" d="M57 164l258 352l-258 352l197 121l348 -473l-348 -473zM504 164l258 352l-258 352l196 121l349 -473l-349 -473z" />
<glyph unicode="&#x401;" horiz-adv-x="1075" d="M129 0v1434h860v-344h-459v-201h416v-316h-416v-229h459v-344h-860zM182 1686q0 67 46 113t114 46t114 -46t46 -113q0 -68 -46 -114t-114 -46t-114 46t-46 114zM612 1686q0 67 46 113t114 46t114 -46t46 -113q0 -68 -46 -114t-114 -46t-114 46t-46 114z" />
<glyph unicode="&#x402;" horiz-adv-x="1589" d="M14 1090v344h1205v-344h-488v-240q111 24 277 24q28 0 50.5 -0.5t64.5 -5t76 -11.5t78 -22t77.5 -35.5t68.5 -52.5t57.5 -72t37 -96t14.5 -122q0 -76 -14.5 -142t-49.5 -126t-89 -102.5t-138.5 -67.5t-191.5 -25q-51 0 -101 6v258q12 -2 35 -2q79 0 113 41t34 104 q0 28 -9.5 53t-32 48.5t-67 37t-106.5 13.5q-99 0 -184 -21v-532h-401v1090h-316z" />
<glyph unicode="&#x403;" horiz-adv-x="1017" d="M129 0v1434h860v-344h-459v-1090h-401zM360 1528l263 307h458l-448 -307h-273z" />
<glyph unicode="&#x404;" horiz-adv-x="1269" d="M66 737q0 158 53.5 295.5t147.5 234.5t226.5 152.5t284.5 55.5q97 0 205.5 -26t200.5 -75v-352q-75 67 -167.5 102t-185.5 35q-138 0 -240 -78.5t-124 -206.5h459v-286h-473q10 -131 104 -222.5t256 -91.5q214 0 371 142v-359q-172 -98 -404 -98q-109 0 -212.5 30.5 t-194.5 94t-159.5 154t-108 219.5t-39.5 280z" />
<glyph unicode="&#x405;" horiz-adv-x="1146" d="M14 188l191 306q198 -191 356 -191q61 0 101 30t40 91q0 24 -6 44t-14.5 34.5t-26.5 28t-32 22t-42 18.5t-45.5 15t-52.5 15.5l-55 16.5q-32 10 -56 18.5t-61.5 27t-65.5 39t-60 54t-52 72.5t-33.5 94t-13.5 119q0 88 32 165.5t93 137.5t159 95t220 35q239 0 436 -142 l-143 -301q-142 127 -260 127q-81 0 -115.5 -37.5t-34.5 -85.5q0 -30 15 -53t44.5 -37.5t52.5 -21.5t58 -15q73 -17 128.5 -36t119 -56.5t104 -86t68 -125.5t27.5 -175q0 -215 -144.5 -343t-394.5 -128q-139 0 -260.5 52t-276.5 177z" />
<glyph unicode="&#x406;" horiz-adv-x="659" d="M129 0v1434h401v-1434h-401z" />
<glyph unicode="&#x407;" horiz-adv-x="757" d="M25 1688q0 68 45.5 113.5t113.5 45.5t114 -46t46 -113q0 -68 -46 -114t-114 -46q-67 0 -113 46t-46 114zM178 0v1434h402v-1434h-402zM414 1688q0 68 46 113.5t113 45.5q68 0 114 -46t46 -113q0 -68 -46.5 -114t-113.5 -46t-113 46t-46 114z" />
<glyph unicode="&#x408;" horiz-adv-x="1003" d="M0 209l258 207q13 -45 45 -79t86 -34q57 0 77.5 37.5t20.5 114.5v979h402v-938q0 -39 -1.5 -72.5t-11 -91.5t-26.5 -104t-50.5 -98.5t-79 -88t-117.5 -59t-161 -23.5q-137 0 -254.5 67.5t-187.5 182.5z" />
<glyph unicode="&#x409;" horiz-adv-x="2207" d="M0 0v344q54 -14 88 -14q52 0 88 14t58 37t33.5 64.5t15.5 86t4 111.5v791h1089v-560h211q51 0 96.5 -3t104.5 -14.5t107.5 -29.5t97 -51.5t82 -78t54.5 -111t21 -148.5t-21 -149t-54.5 -111.5t-82.5 -78t-97.5 -52t-107.5 -30t-104.5 -14.5t-95.5 -3h-612v1090h-287v-566 q0 -55 -2.5 -96t-13.5 -101.5t-31 -104t-58.5 -91.5t-92.5 -78.5t-136 -50.5t-186 -20q-97 0 -168 18zM1376 287h172q99 0 150 34.5t51 116.5q0 81 -50.5 115.5t-150.5 34.5h-172v-301z" />
<glyph unicode="&#x40a;" horiz-adv-x="2250" d="M129 0v1434h401v-560h488v560h401v-560h211q51 0 96.5 -3t104.5 -14.5t107.5 -29.5t97 -51.5t82 -78t54.5 -111t21 -148.5t-21 -149t-54.5 -111.5t-82.5 -78t-97.5 -52t-107.5 -30t-104.5 -14.5t-95.5 -3h-612v588h-488v-588h-401zM1419 287h172q99 0 150 34.5t51 116.5 q0 81 -50.5 115.5t-150.5 34.5h-172v-301z" />
<glyph unicode="&#x40b;" horiz-adv-x="1591" d="M14 1090v344h1205v-344h-488v-236q147 20 268 20q106 0 188.5 -17.5t135.5 -41.5t90 -67t54.5 -76t27 -87.5t10.5 -83.5t0 -80v-26v-395h-401v338q0 34 -0.5 49.5t-4.5 43.5t-12.5 41.5t-25.5 32t-41.5 27t-61.5 15t-86 6.5q-31 0 -45.5 -1.5t-37 -5.5t-58.5 -7v-539 h-401v1090h-316z" />
<glyph unicode="&#x40c;" horiz-adv-x="1433" d="M129 0v1434h401v-603l433 603h471l-545 -695l559 -739h-502l-416 616v-616h-401zM545 1528l262 307h459l-449 -307h-272z" />
<glyph unicode="&#x40e;" horiz-adv-x="1404" d="M0 1434h473l281 -603l229 603h436l-645 -1434h-430l195 395zM307 1741l230 86q46 -121 200 -121q155 0 201 121l229 -86q-55 -118 -172 -174t-258 -56t-258 56t-172 174z" />
<glyph unicode="&#x40f;" horiz-adv-x="1536" d="M129 0v1434h401v-1090h476v1090h401v-1434h-467v-430h-344v430h-467z" />
<glyph unicode="&#x410;" horiz-adv-x="1478" d="M-14 0l510 1434h487l510 -1434h-430l-80 248h-487l-80 -248h-430zM575 563h328l-164 529z" />
<glyph unicode="&#x411;" horiz-adv-x="1361" d="M129 0v1434h1059v-344h-658v-216h211q29 0 48.5 -0.5t66 -4t81 -10.5t84 -22t86 -35.5t76 -54t64.5 -75t41.5 -100t16.5 -128.5q0 -72 -16.5 -133t-42 -104t-65.5 -77.5t-76 -55.5t-86.5 -36.5t-84 -22.5t-81 -10.5t-65 -4t-47.5 -0.5h-612zM530 287h172q99 0 150 34.5 t51 116.5q0 81 -50.5 115.5t-150.5 34.5h-172v-301z" />
<glyph unicode="&#x412;" horiz-adv-x="1388" d="M129 0v1434h694q80 0 146 -14.5t109.5 -38t76 -56.5t50.5 -65.5t29 -70t14 -65t3 -55.5q0 -108 -64 -187t-159 -112v-4q34 -8 68 -21.5t78.5 -42.5t77.5 -67t56 -99.5t23 -136.5q0 -78 -27.5 -147.5t-82 -127t-147 -91t-212.5 -33.5h-733zM530 287h185q22 0 37.5 1 t44.5 4.5t49 13.5t41 26t32 43t11 63q0 34 -10.5 60t-31 41t-40.5 24.5t-49 13t-44.5 4.5t-39.5 1h-185v-295zM530 868h168q56 0 95 13t57.5 35.5t25.5 43.5t7 44q0 63 -44.5 103t-140.5 40h-168v-279z" />
<glyph unicode="&#x413;" horiz-adv-x="1017" d="M129 0v1434h860v-344h-459v-1090h-401z" />
<glyph unicode="&#x414;" horiz-adv-x="1529" d="M0 -287v631q109 5 191.5 88.5t93.5 239.5q2 23 2 135v627h1056v-1090h173v-631h-345v287h-827v-287h-344zM504 344h438v746h-287v-340q0 -59 -2.5 -101t-11.5 -91t-24.5 -85t-44 -70.5t-68.5 -58.5z" />
<glyph unicode="&#x415;" horiz-adv-x="1075" d="M129 0v1434h860v-344h-459v-201h416v-316h-416v-229h459v-344h-860z" />
<glyph unicode="&#x416;" horiz-adv-x="2134" d="M-14 0l522 731l-479 703h456l381 -623v623h402v-623l381 623h456l-479 -703l522 -731h-493l-387 631v-631h-402v631l-387 -631h-493z" />
<glyph unicode="&#x417;" horiz-adv-x="1210" d="M14 172l166 266q78 -73 173 -118.5t175 -45.5q61 0 105 16t65.5 41.5t31 50.5t9.5 50q0 69 -54.5 109.5t-176.5 40.5h-227v286h227q213 0 213 148q0 67 -56 105t-149 38q-81 0 -147.5 -25t-141.5 -73l-139 280q241 134 483 134t396.5 -113t154.5 -293q0 -109 -64 -198.5 t-171 -125.5v-6q50 -16 92 -39.5t84 -63t66 -101t24 -138.5q0 -133 -76.5 -233.5t-206 -152.5t-292.5 -52q-158 0 -278 43.5t-286 169.5z" />
<glyph unicode="&#x418;" horiz-adv-x="1593" d="M129 0v1434h387v-861l555 861h393v-1434h-387v860l-555 -860h-393z" />
<glyph unicode="&#x419;" horiz-adv-x="1593" d="M129 0v1434h387v-861l555 861h393v-1434h-387v860l-555 -860h-393zM367 1741l229 86q46 -121 201 -121q154 0 200 121l230 -86q-55 -118 -172 -174t-258 -56t-258 56t-172 174z" />
<glyph unicode="&#x41a;" horiz-adv-x="1433" d="M129 0v1434h401v-603l433 603h471l-545 -695l559 -739h-502l-416 616v-616h-401z" />
<glyph unicode="&#x41b;" horiz-adv-x="1505" d="M0 0v344q54 -14 88 -14q52 0 88 14t58 37t33.5 64.5t15.5 86t4 111.5v791h1089v-1434h-401v1090h-287v-566q0 -55 -2.5 -96t-13.5 -101.5t-31 -104t-58.5 -91.5t-92.5 -78.5t-136 -50.5t-186 -20q-97 0 -168 18z" />
<glyph unicode="&#x41c;" horiz-adv-x="1781" d="M29 0l209 1434h401l252 -875l252 875h401l209 -1434h-385l-106 831l-242 -831h-258l-242 831l-106 -831h-385z" />
<glyph unicode="&#x41d;" horiz-adv-x="1548" d="M129 0v1434h401v-516h488v516h401v-1434h-401v573h-488v-573h-401z" />
<glyph unicode="&#x41e;" horiz-adv-x="1671" d="M66 717q0 117 29 226t91.5 206t151.5 169.5t217 114.5t281 42t281 -42t217 -114.5t151.5 -169.5t91.5 -206t29 -226t-29 -226t-91.5 -206t-151.5 -169.5t-217 -114.5t-281 -42t-281 42t-217 114.5t-151.5 169.5t-91.5 206t-29 226zM479 717q0 -100 29.5 -180.5 t79.5 -130.5t113.5 -76.5t134.5 -26.5t134.5 26.5t113 76.5t79 130.5t29.5 180.5t-29.5 180.5t-79 130t-113 76t-134.5 26.5t-134.5 -26.5t-113.5 -76t-79.5 -130t-29.5 -180.5z" />
<glyph unicode="&#x41f;" horiz-adv-x="1536" d="M129 0v1434h1278v-1434h-401v1090h-476v-1090h-401z" />
<glyph unicode="&#x420;" horiz-adv-x="1312" d="M129 0v1434h604q117 0 210.5 -31.5t150.5 -80.5t94.5 -114.5t52 -127.5t14.5 -126t-15 -127t-52.5 -128t-94.5 -114t-150 -80.5t-210 -31.5h-203v-473h-401zM530 788h115q197 0 197 166q0 164 -197 164h-115v-330z" />
<glyph unicode="&#x421;" horiz-adv-x="1257" d="M66 717q0 175 59 320t159 239.5t231 146.5t278 52q223 0 393 -115v-416q-148 172 -340 172q-164 0 -265.5 -116t-101.5 -295q0 -167 99.5 -277.5t267.5 -110.5q188 0 340 156v-407q-157 -107 -387 -107q-158 0 -294 54.5t-232.5 152t-151.5 240t-55 311.5z" />
<glyph unicode="&#x422;" horiz-adv-x="1060" d="M14 1090v344h1033v-344h-316v-1090h-401v1090h-316z" />
<glyph unicode="&#x423;" horiz-adv-x="1404" d="M0 1434h473l281 -603l229 603h436l-645 -1434h-430l195 395z" />
<glyph unicode="&#x424;" horiz-adv-x="1884" d="M66 774q0 103 25 188.5t65.5 144.5t98 104t117.5 71.5t128 42t126 20.5t115 3v157h402v-157q57 2 115 -3t126 -20.5t128.5 -42t117.5 -71.5t98 -104t66 -144.5t25 -188.5q0 -104 -25 -190t-65.5 -144.5t-98.5 -103t-117.5 -70t-128.5 -41t-125.5 -20t-115.5 -4.5v-201 h-402v201q-59 0 -115.5 4.5t-125.5 20t-128.5 41t-117 70t-98 103t-65.5 144.5t-25 190zM467 774q0 -72 22.5 -127t55 -84.5t76 -48t79 -23.5t70.5 -4v574q-35 1 -70.5 -4t-79 -23.5t-76 -48t-55 -84.5t-22.5 -127zM1114 487q35 -1 70.5 4t79 23.5t76 48t55 84.5t22.5 127 t-22.5 127t-55 84.5t-76 48t-79 23.5t-70.5 4v-574z" />
<glyph unicode="&#x425;" horiz-adv-x="1460" d="M-14 0l524 754l-473 680h481l213 -387l213 387h455l-447 -660l523 -774h-474l-270 473l-287 -473h-458z" />
<glyph unicode="&#x426;" horiz-adv-x="1591" d="M129 0v1434h401v-1090h474v1090h401v-1090h172v-631h-344v287h-1104z" />
<glyph unicode="&#x427;" horiz-adv-x="1390" d="M86 1018v416h401v-359q0 -32 0.5 -47.5t4.5 -43t12 -41.5t24 -32.5t39.5 -27.5t59 -16t82.5 -7q15 0 151 14v560h402v-1434h-402v559q-147 -20 -268 -20q-79 0 -145 9t-114.5 23.5t-87 39t-64 49.5t-44 61t-28.5 66.5t-15 74.5t-6.5 76.5t-1.5 79.5z" />
<glyph unicode="&#x428;" horiz-adv-x="2150" d="M129 0v1434h401v-1090h344v1090h402v-1090h344v1090h401v-1434h-1892z" />
<glyph unicode="&#x429;" horiz-adv-x="2207" d="M129 0v1434h401v-1090h344v1090h402v-1090h344v1090h401v-1090h172v-631h-344v287h-1720z" />
<glyph unicode="&#x42a;" horiz-adv-x="1533" d="M14 1090v344h688v-560h211q51 0 96.5 -3t104.5 -14.5t107.5 -29.5t97.5 -51.5t82.5 -78t54.5 -111t21 -148.5t-21 -149t-54.5 -111.5t-83 -78t-98 -52t-107.5 -30t-104.5 -14.5t-95.5 -3h-612v1090h-287zM702 287h172q99 0 150 34.5t51 116.5q0 81 -50.5 115.5 t-150.5 34.5h-172v-301z" />
<glyph unicode="&#x42b;" horiz-adv-x="1921" d="M129 0v1434h401v-560h211q51 0 96.5 -3t104.5 -14.5t107.5 -29.5t97.5 -51.5t82.5 -78t54.5 -111t21 -148.5t-21 -149t-54.5 -111.5t-83 -78t-98 -52t-107.5 -30t-104.5 -14.5t-95.5 -3h-612zM530 287h172q99 0 150 34.5t51 116.5q0 81 -50.5 115.5t-150.5 34.5h-172 v-301zM1391 0v1434h401v-1434h-401z" />
<glyph unicode="&#x42c;" horiz-adv-x="1361" d="M129 0v1434h401v-560h211q51 0 96.5 -3t104.5 -14.5t107.5 -29.5t97.5 -51.5t82.5 -78t54.5 -111t21 -148.5t-21 -149t-54.5 -111.5t-83 -78t-98 -52t-107.5 -30t-104.5 -14.5t-95.5 -3h-612zM530 287h172q99 0 150 34.5t51 116.5q0 81 -50.5 115.5t-150.5 34.5h-172 v-301z" />
<glyph unicode="&#x42d;" horiz-adv-x="1269" d="M86 57v359q157 -142 371 -142q162 0 256 91.5t104 222.5h-473v286h459q-22 128 -124.5 206.5t-240.5 78.5q-93 0 -185 -35t-167 -102v352q92 49 200.5 75t205.5 26q152 0 284.5 -55.5t226.5 -152.5t147.5 -234.5t53.5 -295.5q0 -151 -40 -280t-108 -219.5t-159.5 -154 t-195 -94t-212.5 -30.5q-231 0 -403 98z" />
<glyph unicode="&#x42e;" horiz-adv-x="2277" d="M129 0v1434h401v-549h156q14 96 51 182.5t100.5 161.5t149 129.5t202.5 85.5t253 31q153 0 281 -42.5t217 -114.5t151.5 -169.5t91.5 -206.5t29 -225q0 -118 -29 -227.5t-91.5 -206.5t-151.5 -169t-217 -113.5t-281 -41.5q-196 0 -362.5 74.5t-273 215t-122.5 320.5h-154 v-569h-401zM1085 717q0 -100 29.5 -180.5t79.5 -130.5t113.5 -76.5t134.5 -26.5t134.5 26.5t113 76.5t79 130.5t29.5 180.5t-29.5 180.5t-79 130t-113 76t-134.5 26.5t-134.5 -26.5t-113.5 -76t-79.5 -130t-29.5 -180.5z" />
<glyph unicode="&#x42f;" horiz-adv-x="1318" d="M29 0l387 539q-146 26 -238 135.5t-92 281.5q0 97 25.5 174.5t63.5 126.5t92.5 84.5t100.5 53t101 27t81 11t52 1.5h588v-1434h-402v487h-36l-293 -487h-430zM473 946q0 -45 14 -77.5t33.5 -50.5t49.5 -28.5t54 -13t54 -2.5h110v344h-110q-18 0 -34.5 -1.5t-42.5 -6.5 t-46.5 -17t-40 -29.5t-30.5 -48t-11 -69.5z" />
<glyph unicode="&#x430;" horiz-adv-x="1304" d="M61 496q0 77 16 151t52 143.5t88.5 121t131 83t173.5 31.5q104 0 181.5 -37t142.5 -121v121h344v-989h-344v117q-120 -154 -324 -154q-95 0 -178.5 37t-146.5 104t-99.5 168.5t-36.5 223.5zM432 496q0 -98 55 -168t158 -70q96 0 155.5 65t59.5 173q0 107 -59.5 171 t-155.5 64q-105 0 -159 -69.5t-54 -165.5z" />
<glyph unicode="&#x431;" horiz-adv-x="1290" d="M72 596q0 136 21.5 249t55 191t85.5 140.5t101.5 100t115.5 66.5t114.5 42.5t110.5 25.5q24 5 60.5 11t55 9t43 10t37 14.5t22.5 20t13 29.5h287q-2 -55 -17 -101.5t-36 -78.5t-54 -59t-61 -42.5t-67.5 -29.5t-62 -20t-56.5 -13q-6 -1 -9 -2q-67 -15 -107 -25t-91.5 -27 t-82 -34.5t-64.5 -44.5t-54 -59.5t-36.5 -77t-24.5 -100.5h6q122 176 364 176q216 0 352 -136.5t136 -338.5q0 -104 -32.5 -196t-98.5 -168t-179 -120.5t-260 -44.5q-94 0 -173.5 19t-136 49t-102 74.5t-74 88t-49 98t-30.5 95t-15.5 89.5t-6 71t-0.5 49zM442 465 q0 -112 57.5 -178t151.5 -66q95 0 151 66t56 178q0 113 -55.5 178.5t-151.5 65.5q-94 0 -151.5 -66t-57.5 -178z" />
<glyph unicode="&#x432;" horiz-adv-x="1146" d="M115 0v989h647q17 0 29.5 -0.5t44.5 -4.5t56 -12t55 -25t51.5 -40.5t34.5 -61.5t14 -85q0 -21 -2 -41.5t-12 -53t-27 -58.5t-50.5 -51.5t-78.5 -39.5v-4q34 -6 65.5 -20.5t67.5 -42.5t58 -79t22 -118q0 -51 -15.5 -92t-38 -66.5t-55.5 -44.5t-60.5 -28t-61 -14t-50 -6 t-33.5 -1h-661zM459 215h157q59 0 87 26.5t28 67.5q0 48 -33 73.5t-82 25.5h-157v-193zM459 602h147q105 0 105 88q0 26 -10.5 44t-28.5 26t-33.5 11t-32.5 3h-147v-172z" />
<glyph unicode="&#x433;" horiz-adv-x="817" d="M115 0v989h688v-258h-330v-731h-358z" />
<glyph unicode="&#x434;" horiz-adv-x="1318" d="M29 246q69 0 120 45.5t74 130.5q21 78 21 192v375h903v-743h143v-533h-315v287h-631v-287h-315v533zM455 246h348v497h-238v-178q0 -109 -21.5 -181.5t-88.5 -137.5z" />
<glyph unicode="&#x435;" horiz-adv-x="1212" d="M61 496q0 238 147 384t398 146q98 0 179 -22.5t137 -59.5t98.5 -88.5t67.5 -106t40.5 -116t20 -114t2.5 -103.5h-754q-3 -99 53.5 -168.5t159.5 -69.5q75 0 125.5 32t63.5 91h344q-24 -69 -62 -124.5t-78 -90.5t-92 -60t-90.5 -36.5t-88 -18t-71 -7.5t-51.5 -1 q-156 0 -278.5 60t-196.5 182.5t-74 290.5zM406 610h401q-5 83 -57.5 142t-143.5 59q-87 0 -141 -58.5t-59 -142.5z" />
<glyph unicode="&#x436;" horiz-adv-x="1761" d="M-23 0l402 516l-344 473h416l258 -416v416h344v-416l258 416h415l-344 -473l402 -516h-445l-286 430v-430h-344v430l-287 -430h-445z" />
<glyph unicode="&#x437;" horiz-adv-x="1017" d="M43 82l92 233q85 -50 153 -72t156 -22q82 0 114 30t32 66q0 84 -148 84h-155v215h176q121 0 121 84q0 91 -144 91q-64 0 -135.5 -23t-130.5 -61l-96 221q83 43 197.5 70.5t220.5 27.5q52 0 102 -6.5t106.5 -25t98.5 -48.5t70 -81t28 -117q0 -79 -39.5 -141t-107.5 -91v-4 q102 -23 154.5 -91.5t52.5 -152.5q0 -29 -8 -61.5t-37 -78t-76 -80.5t-135.5 -60t-204.5 -25q-242 0 -457 119z" />
<glyph unicode="&#x438;" horiz-adv-x="1290" d="M115 0v989h358v-530l358 530h345v-989h-359v545l-354 -545h-348z" />
<glyph unicode="&#x439;" horiz-adv-x="1277" d="M109 0v989h358v-530l358 530h344v-989h-358v545l-354 -545h-348zM264 1348l234 86q31 -121 170 -121t170 121l233 -86q-52 -118 -161 -174t-242 -56t-242.5 56t-161.5 174z" />
<glyph unicode="&#x43a;" horiz-adv-x="1224" d="M115 0v989h358v-403l299 403h438l-407 -465l444 -524h-452l-322 438v-438h-358z" />
<glyph unicode="&#x43b;" horiz-adv-x="1275" d="M29 0v258q27 -8 61 -8q28 0 50 6.5t43.5 23.5t33.5 53.5t12 90.5v565h932v-989h-358v743h-230v-413q0 -33 -2 -59.5t-10 -64.5t-22 -67.5t-41 -61.5t-63.5 -52.5t-92.5 -34t-125 -13.5q-20 0 -49 3t-50.5 6t-51 8t-37.5 6z" />
<glyph unicode="&#x43c;" horiz-adv-x="1560" d="M29 0l157 989h387l207 -588l207 588h387l158 -989h-340l-84 545l-199 -545h-258l-198 545l-84 -545h-340z" />
<glyph unicode="&#x43d;" horiz-adv-x="1275" d="M115 0v989h358v-348h330v348h358v-989h-358v395h-330v-395h-358z" />
<glyph unicode="&#x43e;" horiz-adv-x="1306" d="M61 496q0 85 22 162t69 145t115 117t167 77.5t219 28.5t219 -28.5t167 -77.5t115 -117t69 -145t22 -162q0 -109 -35.5 -203t-106 -169t-186 -118t-264.5 -43t-264.5 43t-186 118t-106 169t-35.5 203zM432 496q0 -126 58 -200.5t163 -74.5t163 74.5t58 200.5 q0 124 -58 198t-163 74t-163 -74t-58 -198z" />
<glyph unicode="&#x43f;" horiz-adv-x="1261" d="M115 0v989h1032v-989h-359v743h-315v-743h-358z" />
<glyph unicode="&#x440;" horiz-adv-x="1306" d="M115 -430v1419h344v-121q67 83 143 120.5t182 37.5q207 0 334 -146t127 -384q0 -146 -55 -266.5t-161 -193.5t-245 -73q-185 0 -311 137v-530h-358zM444 496q0 -63 21 -115t71.5 -87.5t122.5 -35.5q96 0 155.5 65t59.5 173q0 107 -59.5 171t-155.5 64q-107 0 -161 -69 t-54 -166z" />
<glyph unicode="&#x441;" horiz-adv-x="940" d="M61 496q0 84 20 161t61 144.5t100 117.5t142 78.5t181 28.5q148 0 314 -78v-311q-105 102 -236 102q-101 0 -156 -68.5t-55 -176.5q0 -107 60.5 -173.5t164.5 -66.5q112 0 222 98v-313q-152 -76 -314 -76q-221 0 -362.5 144.5t-141.5 388.5z" />
<glyph unicode="&#x442;" horiz-adv-x="903" d="M14 731v258h875v-258h-258v-731h-359v731h-258z" />
<glyph unicode="&#x443;" horiz-adv-x="1245" d="M-23 989h416l273 -530l231 530h371l-717 -1419h-387l301 573z" />
<glyph unicode="&#x444;" horiz-adv-x="1611" d="M61 496q0 88 20.5 162t54 125.5t81 91.5t97.5 64t107 39.5t106.5 20.5t99.5 5v430h358v-430q72 1 142 -10.5t149 -45.5t137.5 -88t97.5 -148t39 -216t-39 -216.5t-98 -149t-138 -88.5t-149 -45.5t-141 -10.5v-416h-358v416q-49 0 -98.5 5t-106.5 20.5t-107.5 39.5 t-97.5 64t-81 92t-54.5 126t-20.5 163zM406 487q0 -133 72 -204.5t171 -69.5v549q-99 2 -171 -70t-72 -205zM963 213q99 -2 171 69.5t72 204.5t-72 205t-171 70v-549z" />
<glyph unicode="&#x445;" horiz-adv-x="1232" d="M-14 0l434 528l-363 461h439l157 -264l162 264h418l-373 -465l387 -524h-416l-200 324l-211 -324h-434z" />
<glyph unicode="&#x446;" horiz-adv-x="1304" d="M115 0v989h358v-743h301v743h359v-743h143v-533h-315v287h-846z" />
<glyph unicode="&#x447;" horiz-adv-x="1161" d="M86 596v393h344v-313q0 -40 10.5 -66t31 -37.5t42 -15.5t53.5 -4q61 0 121 14v422h359v-989h-359v322q-97 -15 -235 -15q-189 0 -278 70t-89 219z" />
<glyph unicode="&#x448;" horiz-adv-x="1869" d="M115 0v989h358v-743h283v743h358v-743h283v743h358v-989h-1640z" />
<glyph unicode="&#x449;" horiz-adv-x="1927" d="M115 0v989h358v-743h283v743h358v-743h283v743h358v-743h143v-533h-315v287h-1468z" />
<glyph unicode="&#x44a;" horiz-adv-x="1241" d="M14 731v258h602v-330h218q94 0 165.5 -29t111.5 -78t59.5 -106.5t19.5 -121.5q0 -146 -100 -235t-256 -89h-576v731h-244zM616 229h119q60 0 85.5 32t25.5 71q0 45 -32 71.5t-79 26.5h-119v-201z" />
<glyph unicode="&#x44b;" horiz-adv-x="1611" d="M115 0v989h358v-330h217q94 0 165.5 -29t112 -78t60 -106.5t19.5 -121.5q0 -146 -100.5 -235t-256.5 -89h-575zM473 229h119q60 0 85 32t25 71q0 45 -32 71.5t-78 26.5h-119v-201zM1139 0v989h358v-989h-358z" />
<glyph unicode="&#x44c;" horiz-adv-x="1097" d="M115 0v989h358v-330h217q94 0 165.5 -29t112 -78t60 -106.5t19.5 -121.5q0 -146 -100.5 -235t-256.5 -89h-575zM473 229h119q60 0 85 32t25 71q0 45 -32 71.5t-78 26.5h-119v-201z" />
<glyph unicode="&#x44d;" horiz-adv-x="1007" d="M86 14v287q128 -96 283 -96q114 0 183.5 52t78.5 138h-416v215h408q-14 79 -85 133t-176 54q-138 0 -270 -107v273q147 63 301 63q111 0 211 -35t176 -100t121 -166t45 -223q0 -105 -35 -201t-101 -173t-174 -123t-243 -46q-173 0 -307 55z" />
<glyph unicode="&#x44e;" horiz-adv-x="1810" d="M115 0v989h358v-364h113q12 52 33.5 101t66 106t105 98t156.5 68.5t214 27.5q149 0 264 -43t184.5 -118t104.5 -168t35 -201q0 -109 -35 -203t-105 -169t-186 -118t-266 -43q-118 0 -214.5 28t-158.5 71.5t-106.5 102.5t-65.5 115t-30 115h-109v-395h-358zM944 496 q0 -126 56 -200.5t161 -74.5t161 74.5t56 200.5q0 125 -56 198.5t-161 73.5t-161 -73.5t-56 -198.5z" />
<glyph unicode="&#x44f;" horiz-adv-x="1132" d="M57 0l258 344q-114 15 -181.5 103t-67.5 219q0 85 30 148.5t83.5 101t119.5 55.5t145 18h574v-989h-359v315h-28l-201 -315h-373zM410 643q0 -113 129 -113h120v230h-120q-129 0 -129 -117z" />
<glyph unicode="&#x451;" horiz-adv-x="1212" d="M61 496q0 238 147 384t398 146q98 0 179 -22.5t137 -59.5t98.5 -88.5t67.5 -106t40.5 -116t20 -114t2.5 -103.5h-754q-3 -99 53.5 -168.5t159.5 -69.5q75 0 125.5 32t63.5 91h344q-24 -69 -62 -124.5t-78 -90.5t-92 -60t-90.5 -36.5t-88 -18t-71 -7.5t-51.5 -1 q-156 0 -278.5 60t-196.5 182.5t-74 290.5zM231 1262q0 67 46 113t114 46t114 -46t46 -113q0 -68 -46.5 -114t-113.5 -46t-113.5 46t-46.5 114zM406 610h401q-5 83 -57.5 142t-143.5 59q-87 0 -141 -58.5t-59 -142.5zM662 1262q0 68 46 113.5t113 45.5q68 0 114 -46t46 -113 q0 -68 -46.5 -114t-113.5 -46t-113 46t-46 114z" />
<glyph unicode="&#x452;" horiz-adv-x="1247" d="M-57 1161v201h172v143h358v-143h430v-201h-430v-287q117 152 322 152q352 0 352 -448v-684q0 -33 -2 -59.5t-10.5 -64.5t-23 -67.5t-42.5 -61.5t-66 -52.5t-96.5 -34t-130.5 -13.5q-20 0 -49 3t-50.5 6t-51 8t-37.5 6v258q27 -8 61 -8q28 0 50 6.5t43.5 23.5t33.5 53.5 t12 90.5v557q0 25 -1 43t-8 47.5t-19.5 48t-37.5 33t-60 14.5q-77 0 -133 -62.5t-56 -181.5v-487h-358v1161h-172z" />
<glyph unicode="&#x453;" horiz-adv-x="817" d="M115 0v989h688v-258h-330v-731h-358zM279 1104l221 330h458l-407 -330h-272z" />
<glyph unicode="&#x454;" horiz-adv-x="1007" d="M61 502q0 102 37 196t105 167.5t174.5 117t236.5 43.5q154 0 301 -63v-273q-132 107 -270 107q-105 0 -175.5 -54t-84.5 -133h408v-215h-416q9 -82 79 -134t183 -52q158 0 283 92v-287q-138 -51 -308 -51q-135 0 -243 45.5t-174 122t-101 171.5t-35 200z" />
<glyph unicode="&#x455;" horiz-adv-x="954" d="M43 66l100 247q143 -92 277 -92q57 0 80.5 21t23.5 49q0 23 -11 39t-33.5 25t-34.5 11.5t-35 6.5q-170 26 -252 95.5t-82 209.5q0 151 101 249.5t304 98.5q204 0 387 -86l-112 -229q-121 80 -228 80q-108 0 -108 -84q0 -43 33.5 -61.5t140.5 -31.5q26 -3 52 -8.5 t72.5 -25.5t79.5 -49.5t59 -86t26 -129.5q0 -56 -14 -105.5t-46.5 -95t-82 -79t-125.5 -53t-171 -19.5q-239 0 -401 103z" />
<glyph unicode="&#x456;" horiz-adv-x="593" d="M109 1276q0 78 55 133t133 55t133 -55t55 -133t-55 -133.5t-133 -55.5t-133 55.5t-55 133.5zM119 0v989h358v-989h-358z" />
<glyph unicode="&#x457;" horiz-adv-x="634" d="M0 1262q0 66 40.5 111.5t98.5 45.5q59 0 99.5 -45.5t40.5 -111.5q0 -65 -40.5 -111.5t-99.5 -46.5t-99 46.5t-40 111.5zM139 0v989h359v-989h-359zM356 1262q0 66 40.5 111.5t99.5 45.5q58 0 98.5 -45.5t40.5 -111.5q0 -65 -40 -111.5t-99 -46.5t-99.5 46.5t-40.5 111.5z " />
<glyph unicode="&#x458;" horiz-adv-x="593" d="M109 1276q0 78 55 133t133 55t133 -55t55 -133t-55 -133.5t-133 -55.5t-133 55.5t-55 133.5zM119 -430v1419h358v-1419h-358z" />
<glyph unicode="&#x459;" horiz-adv-x="1785" d="M29 0v258q27 -8 61 -8q28 0 50 6.5t43.5 23.5t33.5 53.5t12 90.5v565h932v-330h217q94 0 165.5 -29t112 -78t60 -106.5t19.5 -121.5q0 -146 -100.5 -235t-256.5 -89h-575v743h-230v-413q0 -33 -2 -59.5t-10 -64.5t-22 -67.5t-41 -61.5t-63.5 -52.5t-92.5 -34t-125 -13.5 q-20 0 -49 3t-50.5 6t-51 8t-37.5 6zM1161 229h119q60 0 85.5 32t25.5 71q0 45 -32 71.5t-79 26.5h-119v-201z" />
<glyph unicode="&#x45a;" horiz-adv-x="1785" d="M115 0v989h358v-330h330v330h358v-330h217q94 0 165.5 -29t112 -78t60 -106.5t19.5 -121.5q0 -146 -100.5 -235t-256.5 -89h-575v414h-330v-414h-358zM1161 229h119q60 0 85.5 32t25.5 71q0 45 -32 71.5t-79 26.5h-119v-201z" />
<glyph unicode="&#x45b;" horiz-adv-x="1247" d="M-57 1161v201h172v143h358v-143h430v-201h-430v-287q117 152 322 152q352 0 352 -448v-578h-359v545q0 25 -1 43t-8 47.5t-19.5 48t-37.5 33t-60 14.5q-77 0 -133 -62.5t-56 -181.5v-487h-358v1161h-172z" />
<glyph unicode="&#x45c;" horiz-adv-x="1224" d="M115 0v989h358v-403l299 403h438l-407 -465l444 -524h-452l-322 438v-438h-358zM422 1104l221 330h459l-408 -330h-272z" />
<glyph unicode="&#x45e;" horiz-adv-x="1245" d="M-23 989h416l273 -530l231 530h371l-717 -1419h-387l301 573zM219 1348l234 86q31 -121 170 -121t170 121l233 -86q-52 -118 -161 -174t-242 -56t-242.5 56t-161.5 174z" />
<glyph unicode="&#x45f;" horiz-adv-x="1261" d="M115 0v989h358v-743h315v743h359v-989h-359v-348h-315v348h-358z" />
<glyph unicode="&#x490;" horiz-adv-x="1046" d="M129 0v1434h573v286h316v-630h-488v-1090h-401z" />
<glyph unicode="&#x491;" horiz-adv-x="817" d="M115 0v989h473v260h215v-518h-330v-731h-358z" />
<glyph unicode="&#x2000;" horiz-adv-x="923" />
<glyph unicode="&#x2001;" horiz-adv-x="1847" />
<glyph unicode="&#x2002;" horiz-adv-x="923" />
<glyph unicode="&#x2003;" horiz-adv-x="1847" />
<glyph unicode="&#x2004;" horiz-adv-x="615" />
<glyph unicode="&#x2005;" horiz-adv-x="461" />
<glyph unicode="&#x2006;" horiz-adv-x="307" />
<glyph unicode="&#x2007;" horiz-adv-x="307" />
<glyph unicode="&#x2008;" horiz-adv-x="230" />
<glyph unicode="&#x2009;" horiz-adv-x="369" />
<glyph unicode="&#x200a;" horiz-adv-x="102" />
<glyph unicode="&#x2010;" horiz-adv-x="860" d="M82 401v316h696v-316h-696z" />
<glyph unicode="&#x2011;" horiz-adv-x="860" d="M82 401v316h696v-316h-696z" />
<glyph unicode="&#x2012;" horiz-adv-x="860" d="M82 401v316h696v-316h-696z" />
<glyph unicode="&#x2013;" horiz-adv-x="1277" d="M102 457v205h1074v-205h-1074z" />
<glyph unicode="&#x2014;" horiz-adv-x="1748" d="M102 457v205h1545v-205h-1545z" />
<glyph unicode="&#x2018;" horiz-adv-x="688" d="M57 803l301 631h273l-215 -631h-359z" />
<glyph unicode="&#x2019;" horiz-adv-x="688" d="M57 803l215 631h359l-301 -631h-273z" />
<glyph unicode="&#x201a;" horiz-adv-x="659" d="M29 -287l215 631h358l-301 -631h-272z" />
<glyph unicode="&#x201c;" horiz-adv-x="1161" d="M57 803l301 631h273l-215 -631h-359zM530 803l301 631h273l-215 -631h-359z" />
<glyph unicode="&#x201d;" horiz-adv-x="1161" d="M57 803l215 631h359l-301 -631h-273zM530 803l215 631h359l-301 -631h-273z" />
<glyph unicode="&#x201e;" horiz-adv-x="1161" d="M57 -287l215 631h359l-301 -631h-273zM530 -287l215 631h359l-301 -631h-273z" />
<glyph unicode="&#x2022;" horiz-adv-x="1392" d="M328 717q0 154 107 261t261 107t261.5 -107t107.5 -261t-107.5 -261.5t-261.5 -107.5t-261 107.5t-107 261.5z" />
<glyph unicode="&#x2026;" horiz-adv-x="2027" d="M129 172q0 86 61.5 147.5t147.5 61.5t147.5 -61.5t61.5 -147.5t-61.5 -147.5t-147.5 -61.5t-147.5 61.5t-61.5 147.5zM805 172q0 86 61.5 147.5t147.5 61.5t147.5 -61.5t61.5 -147.5t-61.5 -147.5t-147.5 -61.5t-147.5 61.5t-61.5 147.5zM1481 172q0 86 61.5 147.5 t147.5 61.5t147 -61.5t61 -147.5t-61 -147.5t-147 -61.5t-147.5 61.5t-61.5 147.5z" />
<glyph unicode="&#x202f;" horiz-adv-x="369" />
<glyph unicode="&#x2039;" horiz-adv-x="659" d="M57 516l349 473l196 -121l-258 -352l258 -352l-196 -121z" />
<glyph unicode="&#x203a;" horiz-adv-x="659" d="M57 164l258 352l-258 352l197 121l348 -473l-348 -473z" />
<glyph unicode="&#x205f;" horiz-adv-x="461" />
<glyph unicode="&#x20ac;" d="M33 463l67 188h84q-2 16 -2 60q0 37 2 55h-151l67 188h99q22 119 64.5 211t111.5 163.5t172.5 109t238.5 37.5q112 0 200.5 -25t129.5 -55v-299q-37 42 -108 69t-170 27q-250 0 -297 -238h503l-67 -188h-457q-2 -14 -2 -53q0 -48 2 -62h416l-68 -188h-321 q45 -221 293 -221q89 0 162.5 26.5t113.5 65.5v-297q-39 -30 -124.5 -53t-205.5 -23q-253 0 -397.5 124.5t-185.5 377.5h-170z" />
<glyph unicode="&#x2122;" horiz-adv-x="1720" d="M41 1249v185h614v-185h-184v-635h-246v635h-184zM692 614l90 820h320l84 -473l84 473h319l90 -820h-229l-47 557l-111 -557h-213l-110 557l-47 -557h-230z" />
<glyph unicode="&#xe000;" horiz-adv-x="993" d="M0 0v993h993v-993h-993z" />
</font>
</defs>
</svg>
